<svg width="24" height="24" viewBox="0 0 24 24" fill="none" xmlns="http://www.w3.org/2000/svg">
<path d="M12.0297 18.9291C12.4029 18.9291 12.7173 18.8013 12.973 18.5456C13.2287 18.2899 13.3565 17.9851 13.3565 17.6313C13.3565 17.2775 13.2287 16.973 12.973 16.7178C12.7173 16.4621 12.4029 16.3342 12.0297 16.3342C11.6759 16.3342 11.3712 16.4621 11.1155 16.7178C10.8598 16.973 10.7319 17.2775 10.7319 17.6313C10.7319 17.9851 10.8598 18.2899 11.1155 18.5456C11.3712 18.8013 11.6759 18.9291 12.0297 18.9291ZM10.9386 14.5652H12.9433C12.9433 14.0146 13.0121 13.533 13.1499 13.1202C13.2877 12.7074 13.6809 12.2161 14.3295 11.6462C14.8994 11.1546 15.3169 10.6682 15.582 10.1871C15.8476 9.70539 15.9804 9.1499 15.9804 8.52058C15.9804 7.45913 15.6266 6.61399 14.919 5.98514C14.2113 5.35629 13.2973 5.04187 12.1769 5.04187C11.1353 5.04187 10.2458 5.31218 9.50843 5.85281C8.77155 6.39297 8.23588 7.09565 7.9014 7.96084L9.72992 8.63875C9.90683 8.14719 10.1918 7.7344 10.5847 7.4004C10.9777 7.0664 11.4789 6.8994 12.0885 6.8994C12.698 6.8994 13.1796 7.0664 13.5334 7.4004C13.8873 7.7344 14.0642 8.14719 14.0642 8.63875C14.0642 9.05154 13.9462 9.43979 13.7103 9.80351C13.4745 10.1672 13.1402 10.526 12.7076 10.8798C12.0392 11.4497 11.5773 11.9755 11.3221 12.4571C11.0664 12.9388 10.9386 13.6415 10.9386 14.5652ZM12 24C10.329 24 8.76636 23.6905 7.31195 23.0716C5.85753 22.4522 4.58969 21.6021 3.50843 20.5213C2.42717 19.44 1.57212 18.1722 0.943272 16.7178C0.314424 15.2629 0 13.6903 0 12C0 10.329 0.314424 8.76141 0.943272 7.29709C1.57212 5.83276 2.42717 4.56493 3.50843 3.49357C4.58969 2.42222 5.85753 1.57212 7.31195 0.943272C8.76636 0.314424 10.329 0 12 0C13.671 0 15.2336 0.30947 16.6881 0.928411C18.1425 1.54782 19.4103 2.39792 20.4916 3.47871C21.5728 4.55997 22.4279 5.83276 23.0567 7.29709C23.6856 8.76141 24 10.329 24 12C24 13.6903 23.6856 15.2629 23.0567 16.7178C22.4279 18.1722 21.5728 19.44 20.4916 20.5213C19.4103 21.6021 18.1425 22.4522 16.6881 23.0716C15.2336 23.6905 13.671 24 12 24ZM12 21.7596C14.7126 21.7596 17.0173 20.8062 18.9143 18.8994C20.8112 16.9926 21.7596 14.6928 21.7596 12C21.7596 9.30723 20.8112 7.00743 18.9143 5.1006C17.0173 3.19377 14.7126 2.24036 12 2.24036C9.28742 2.24036 6.98266 3.19377 5.08574 5.1006C3.18882 7.00743 2.24036 9.30723 2.24036 12C2.24036 14.6928 3.18882 16.9926 5.08574 18.8994C6.98266 20.8062 9.28742 21.7596 12 21.7596Z" fill="white"/>
</svg>
